{
 "asset": {
  "version": "2.0",
  "generator": "gama sample assets"
 },
 "scene": 0,
 "scenes": [
  {
   "name": "lamp",
   "nodes": [
    0,
    1
   ]
  }
 ],
 "nodes": [
  {
   "name": "post",
   "mesh": 0,
   "translation": [
    0,
    1.3,
    0
   ]
  },
  {
   "name": "glass",
   "mesh": 1,
   "translation": [
    0,
    2.75,
    0
   ]
  }
 ],
 "meshes": [
  {
   "name": "post",
   "primitives": [
    {
     "attributes": {
      "POSITION": 0,
      "NORMAL": 1
     },
     "indices": 2,
     "material": 0
    }
   ]
  },
  {
   "name": "glass",
   "primitives": [
    {
     "attributes": {
      "POSITION": 3,
      "NORMAL": 4
     },
     "indices": 5,
     "material": 1
    }
   ]
  }
 ],
 "materials": [
  {
   "name": "post-material",
   "pbrMetallicRoughness": {
    "baseColorFactor": [
     0.2,
     0.22,
     0.25,
     1
    ],
    "metallicFactor": 0,
    "roughnessFactor": 0.5
   }
  },
  {
   "name": "glass-material",
   "pbrMetallicRoughness": {
    "baseColorFactor": [
     1,
     0.9,
     0.66,
     1
    ],
    "metallicFactor": 0,
    "roughnessFactor": 0.2
   },
   "emissiveFactor": [
    1,
    0.78,
    0.36
   ]
  }
 ],
 "accessors": [
  {
   "bufferView": 0,
   "componentType": 5126,
   "count": 46,
   "type": "VEC3",
   "min": [
    -0.09510564804077148,
    -1.2999999523162842,
    -0.10000000149011612
   ],
   "max": [
    0.09510564804077148,
    1.2999999523162842,
    0.10000000149011612
   ]
  },
  {
   "bufferView": 1,
   "componentType": 5126,
   "count": 46,
   "type": "VEC3"
  },
  {
   "bufferView": 2,
   "componentType": 5123,
   "count": 120,
   "type": "SCALAR"
  },
  {
   "bufferView": 3,
   "componentType": 5126,
   "count": 24,
   "type": "VEC3",
   "min": [
    -0.17000000178813934,
    -0.20000000298023224,
    -0.17000000178813934
   ],
   "max": [
    0.17000000178813934,
    0.20000000298023224,
    0.17000000178813934
   ]
  },
  {
   "bufferView": 4,
   "componentType": 5126,
   "count": 24,
   "type": "VEC3"
  },
  {
   "bufferView": 5,
   "componentType": 5123,
   "count": 36,
   "type": "SCALAR"
  }
 ],
 "bufferViews": [
  {
   "buffer": 0,
   "byteOffset": 0,
   "byteLength": 552,
   "target": 34962
  },
  {
   "buffer": 0,
   "byteOffset": 552,
   "byteLength": 552,
   "target": 34962
  },
  {
   "buffer": 0,
   "byteOffset": 1104,
   "byteLength": 240,
   "target": 34963
  },
  {
   "buffer": 0,
   "byteOffset": 1344,
   "byteLength": 288,
   "target": 34962
  },
  {
   "buffer": 0,
   "byteOffset": 1632,
   "byteLength": 288,
   "target": 34962
  },
  {
   "buffer": 0,
   "byteOffset": 1920,
   "byteLength": 72,
   "target": 34963
  }
 ],
 "buffers": [
  {
   "byteLength": 1992,
   "uri": "data:application/octet-stream;base64,"
  }
 ]
}
