{
 "asset": {
  "version": "2.0",
  "generator": "gama sample assets"
 },
 "scene": 0,
 "scenes": [
  {
   "name": "statue",
   "nodes": [
    0,
    1,
    2
   ]
  }
 ],
 "nodes": [
  {
   "name": "plinth",
   "mesh": 0,
   "translation": [
    0,
    0.25,
    0
   ]
  },
  {
   "name": "shaft",
   "mesh": 1,
   "translation": [
    0,
    1.6,
    0
   ]
  },
  {
   "name": "cap",
   "mesh": 2,
   "translation": [
    0,
    3.1,
    0
   ]
  }
 ],
 "meshes": [
  {
   "name": "plinth",
   "primitives": [
    {
     "attributes": {
      "POSITION": 0,
      "NORMAL": 1
     },
     "indices": 2,
     "material": 0
    }
   ]
  },
  {
   "name": "shaft",
   "primitives": [
    {
     "attributes": {
      "POSITION": 3,
      "NORMAL": 4
     },
     "indices": 5,
     "material": 1
    }
   ]
  },
  {
   "name": "cap",
   "primitives": [
    {
     "attributes": {
      "POSITION": 6,
      "NORMAL": 7
     },
     "indices": 8,
     "material": 2
    }
   ]
  }
 ],
 "materials": [
  {
   "name": "plinth-material",
   "pbrMetallicRoughness": {
    "baseColorFactor": [
     0.62,
     0.6,
     0.55,
     1
    ],
    "metallicFactor": 0,
    "roughnessFactor": 0.8
   }
  },
  {
   "name": "shaft-material",
   "pbrMetallicRoughness": {
    "baseColorFactor": [
     0.72,
     0.7,
     0.64,
     1
    ],
    "metallicFactor": 0,
    "roughnessFactor": 0.8
   }
  },
  {
   "name": "cap-material",
   "pbrMetallicRoughness": {
    "baseColorFactor": [
     0.68,
     0.66,
     0.6,
     1
    ],
    "metallicFactor": 0,
    "roughnessFactor": 0.8
   }
  }
 ],
 "accessors": [
  {
   "bufferView": 0,
   "componentType": 5126,
   "count": 24,
   "type": "VEC3",
   "min": [
    -0.699999988079071,
    -0.25,
    -0.699999988079071
   ],
   "max": [
    0.699999988079071,
    0.25,
    0.699999988079071
   ]
  },
  {
   "bufferView": 1,
   "componentType": 5126,
   "count": 24,
   "type": "VEC3"
  },
  {
   "bufferView": 2,
   "componentType": 5123,
   "count": 36,
   "type": "SCALAR"
  },
  {
   "bufferView": 3,
   "componentType": 5126,
   "count": 54,
   "type": "VEC3",
   "min": [
    -0.41999998688697815,
    -1.100000023841858,
    -0.41999998688697815
   ],
   "max": [
    0.41999998688697815,
    1.100000023841858,
    0.41999998688697815
   ]
  },
  {
   "bufferView": 4,
   "componentType": 5126,
   "count": 54,
   "type": "VEC3"
  },
  {
   "bufferView": 5,
   "componentType": 5123,
   "count": 144,
   "type": "SCALAR"
  },
  {
   "bufferView": 6,
   "componentType": 5126,
   "count": 54,
   "type": "VEC3",
   "min": [
    -0.5,
    -0.44999998807907104,
    -0.5
   ],
   "max": [
    0.5,
    0.44999998807907104,
    0.5
   ]
  },
  {
   "bufferView": 7,
   "componentType": 5126,
   "count": 54,
   "type": "VEC3"
  },
  {
   "bufferView": 8,
   "componentType": 5123,
   "count": 144,
   "type": "SCALAR"
  }
 ],
 "bufferViews": [
  {
   "buffer": 0,
   "byteOffset": 0,
   "byteLength": 288,
   "target": 34962
  },
  {
   "buffer": 0,
   "byteOffset": 288,
   "byteLength": 288,
   "target": 34962
  },
  {
   "buffer": 0,
   "byteOffset": 576,
   "byteLength": 72,
   "target": 34963
  },
  {
   "buffer": 0,
   "byteOffset": 648,
   "byteLength": 648,
   "target": 34962
  },
  {
   "buffer": 0,
   "byteOffset": 1296,
   "byteLength": 648,
   "target": 34962
  },
  {
   "buffer": 0,
   "byteOffset": 1944,
   "byteLength": 288,
   "target": 34963
  },
  {
   "buffer": 0,
   "byteOffset": 2232,
   "byteLength": 648,
   "target": 34962
  },
  {
   "buffer": 0,
   "byteOffset": 2880,
   "byteLength": 648,
   "target": 34962
  },
  {
   "buffer": 0,
   "byteOffset": 3528,
   "byteLength": 288,
   "target": 34963
  }
 ],
 "buffers": [
  {
   "byteLength": 3816,
   "uri": "data:application/octet-stream;base64,"
  }
 ]
}
