{
 "asset": {
  "version": "2.0",
  "generator": "gama sample assets"
 },
 "scene": 0,
 "scenes": [
  {
   "name": "crate",
   "nodes": [
    0,
    1
   ]
  }
 ],
 "nodes": [
  {
   "name": "body",
   "mesh": 0,
   "translation": [
    0,
    0.5,
    0
   ]
  },
  {
   "name": "band",
   "mesh": 1,
   "translation": [
    0,
    0.78,
    0
   ]
  }
 ],
 "meshes": [
  {
   "name": "body",
   "primitives": [
    {
     "attributes": {
      "POSITION": 0,
      "NORMAL": 1
     },
     "indices": 2,
     "material": 0
    }
   ]
  },
  {
   "name": "band",
   "primitives": [
    {
     "attributes": {
      "POSITION": 3,
      "NORMAL": 4
     },
     "indices": 5,
     "material": 1
    }
   ]
  }
 ],
 "materials": [
  {
   "name": "body-material",
   "pbrMetallicRoughness": {
    "baseColorFactor": [
     0.66,
     0.46,
     0.24,
     1
    ],
    "metallicFactor": 0,
    "roughnessFactor": 0.8
   }
  },
  {
   "name": "band-material",
   "pbrMetallicRoughness": {
    "baseColorFactor": [
     0.34,
     0.24,
     0.13,
     1
    ],
    "metallicFactor": 0,
    "roughnessFactor": 0.8
   }
  }
 ],
 "accessors": [
  {
   "bufferView": 0,
   "componentType": 5126,
   "count": 24,
   "type": "VEC3",
   "min": [
    -0.5,
    -0.5,
    -0.5
   ],
   "max": [
    0.5,
    0.5,
    0.5
   ]
  },
  {
   "bufferView": 1,
   "componentType": 5126,
   "count": 24,
   "type": "VEC3"
  },
  {
   "bufferView": 2,
   "componentType": 5123,
   "count": 36,
   "type": "SCALAR"
  },
  {
   "bufferView": 3,
   "componentType": 5126,
   "count": 24,
   "type": "VEC3",
   "min": [
    -0.5199999809265137,
    -0.05000000074505806,
    -0.5199999809265137
   ],
   "max": [
    0.5199999809265137,
    0.05000000074505806,
    0.5199999809265137
   ]
  },
  {
   "bufferView": 4,
   "componentType": 5126,
   "count": 24,
   "type": "VEC3"
  },
  {
   "bufferView": 5,
   "componentType": 5123,
   "count": 36,
   "type": "SCALAR"
  }
 ],
 "bufferViews": [
  {
   "buffer": 0,
   "byteOffset": 0,
   "byteLength": 288,
   "target": 34962
  },
  {
   "buffer": 0,
   "byteOffset": 288,
   "byteLength": 288,
   "target": 34962
  },
  {
   "buffer": 0,
   "byteOffset": 576,
   "byteLength": 72,
   "target": 34963
  },
  {
   "buffer": 0,
   "byteOffset": 648,
   "byteLength": 288,
   "target": 34962
  },
  {
   "buffer": 0,
   "byteOffset": 936,
   "byteLength": 288,
   "target": 34962
  },
  {
   "buffer": 0,
   "byteOffset": 1224,
   "byteLength": 72,
   "target": 34963
  }
 ],
 "buffers": [
  {
   "byteLength": 1296,
   "uri": "data:application/octet-stream;base64,"
  }
 ]
}
